<svg width="1280" height="360" viewBox="0 0 1280 360" fill="none" xmlns="http://www.w3.org/2000/svg" role="img" aria-labelledby="title desc">
  <title id="title">Muhammad Raja Daffa Profile Banner</title>
  <desc id="desc">Modern professional banner in navy, blue, and teal with the name Muhammad Raja Daffa and subtitle Full Stack Developer, SaaS Builder, Cybersecurity Enthusiast.</desc>
  <defs>
    <linearGradient id="bg" x1="80" y1="40" x2="1200" y2="320" gradientUnits="userSpaceOnUse">
      <stop offset="0" stop-color="#081224"/>
      <stop offset="0.52" stop-color="#0F2D52"/>
      <stop offset="1" stop-color="#0C6E74"/>
    </linearGradient>
    <linearGradient id="accent" x1="220" y1="70" x2="930" y2="300" gradientUnits="userSpaceOnUse">
      <stop offset="0" stop-color="#3B82F6" stop-opacity="0.38"/>
      <stop offset="1" stop-color="#2DD4BF" stop-opacity="0.18"/>
    </linearGradient>
    <radialGradient id="glowA" cx="0" cy="0" r="1" gradientUnits="userSpaceOnUse" gradientTransform="translate(1020 72) rotate(138.925) scale(356.505 232.875)">
      <stop stop-color="#38BDF8" stop-opacity="0.28"/>
      <stop offset="1" stop-color="#38BDF8" stop-opacity="0"/>
    </radialGradient>
    <radialGradient id="glowB" cx="0" cy="0" r="1" gradientUnits="userSpaceOnUse" gradientTransform="translate(240 322) rotate(-25.0169) scale(408.807 220.44)">
      <stop stop-color="#14B8A6" stop-opacity="0.26"/>
      <stop offset="1" stop-color="#14B8A6" stop-opacity="0"/>
    </radialGradient>
  </defs>

  <rect width="1280" height="360" rx="28" fill="url(#bg)"/>
  <rect width="1280" height="360" rx="28" fill="url(#accent)"/>
  <rect x="64" y="52" width="1152" height="256" rx="24" fill="white" fill-opacity="0.03" stroke="white" stroke-opacity="0.08"/>

  <circle cx="1060" cy="88" r="160" fill="url(#glowA)"/>
  <circle cx="244" cy="310" r="190" fill="url(#glowB)"/>

  <path d="M836 54C922 88 1010 138 1138 148" stroke="white" stroke-opacity="0.08" stroke-width="2"/>
  <path d="M858 98C952 122 1020 178 1160 188" stroke="white" stroke-opacity="0.06" stroke-width="2"/>
  <path d="M850 142C972 164 1058 216 1180 230" stroke="white" stroke-opacity="0.05" stroke-width="2"/>

  <rect x="92" y="86" width="88" height="10" rx="5" fill="#2DD4BF" fill-opacity="0.95"/>
  <text x="92" y="162" fill="white" font-family="Segoe UI, Arial, sans-serif" font-size="42" font-weight="700" letter-spacing="0.2">
    Muhammad Raja Daffa
  </text>
  <text x="92" y="208" fill="#D5E7F7" font-family="Segoe UI, Arial, sans-serif" font-size="21" font-weight="500">
    Full Stack Developer · SaaS Builder · Cybersecurity Enthusiast
  </text>

  <g opacity="0.9">
    <rect x="94" y="244" width="164" height="34" rx="17" fill="white" fill-opacity="0.08" stroke="white" stroke-opacity="0.12"/>
    <text x="126" y="266" fill="#E6F4FF" font-family="Segoe UI, Arial, sans-serif" font-size="14" font-weight="600">Laravel</text>

    <rect x="272" y="244" width="136" height="34" rx="17" fill="white" fill-opacity="0.08" stroke="white" stroke-opacity="0.12"/>
    <text x="306" y="266" fill="#E6F4FF" font-family="Segoe UI, Arial, sans-serif" font-size="14" font-weight="600">Vue.js</text>

    <rect x="422" y="244" width="148" height="34" rx="17" fill="white" fill-opacity="0.08" stroke="white" stroke-opacity="0.12"/>
    <text x="454" y="266" fill="#E6F4FF" font-family="Segoe UI, Arial, sans-serif" font-size="14" font-weight="600">SaaS</text>
  </g>
</svg>
